<svg width="64" height="83" viewBox="0 0 64 83" fill="none" xmlns="http://www.w3.org/2000/svg"> <circle cx="32" cy="42" r="30.5" fill="url(#paint0_linear_1_74)" stroke="url(#paint1_linear_1_74)" stroke-width="3" stroke-dasharray="1 1"/> <path d="M28.016 64V57.344C25.5413 56.7467 23.3867 55.7227 21.552 54.272C19.76 52.7787 18.352 51.008 17.328 48.96C16.3467 46.8693 15.856 44.6293 15.856 42.24C15.856 39.8507 16.3467 37.632 17.328 35.584C18.352 33.4933 19.76 31.7227 21.552 30.272C23.3867 28.7787 25.5413 27.7333 28.016 27.136V19.2H35.056V26.944C36.976 27.2427 38.704 27.8613 40.24 28.8C41.8187 29.7387 43.2267 30.8907 44.464 32.256L38.576 37.056C37.808 36.2027 36.912 35.4987 35.888 34.944C34.864 34.3467 33.6267 34.048 32.176 34.048C29.5733 34.048 27.5467 34.816 26.096 36.352C24.688 37.8453 23.984 39.808 23.984 42.24C23.984 44.672 24.688 46.656 26.096 48.192C27.5467 49.6853 29.5733 50.432 32.176 50.432C33.7547 50.432 35.0987 50.112 36.208 49.472C37.3173 48.832 38.2773 48.0213 39.088 47.04L44.72 51.904C43.4827 53.3547 42.0533 54.592 40.432 55.616C38.8533 56.5973 37.0613 57.2373 35.056 57.536V64H28.016Z" fill="#FFE181"/> <defs> <linearGradient id="paint0_linear_1_74" x1="12.5" y1="11" x2="51.5" y2="75" gradientUnits="userSpaceOnUse"> <stop stop-color="#FFC400"/> <stop offset="1" stop-color="#FF9500"/> </linearGradient> <linearGradient id="paint1_linear_1_74" x1="10" y1="10" x2="56" y2="74" gradientUnits="userSpaceOnUse"> <stop stop-color="#FFE181"/> <stop offset="1" stop-color="#FFA743"/> </linearGradient> </defs> </svg>
